<?xml version="1.0" encoding="UTF-8"?>
<svg xmlns="http://www.w3.org/2000/svg" xmlns:xlink="http://www.w3.org/1999/xlink" width="20px" height="20px" viewBox="0 0 20 20" version="1.1">
<g id="surface1">
<path style=" stroke:none;fill-rule:nonzero;fill:rgb(93.725491%,93.725491%,93.725491%);fill-opacity:1;" d="M 3.8125 1.945312 C 3.945312 1.945312 4.078125 1.941406 4.214844 1.941406 C 4.65625 1.9375 5.097656 1.933594 5.539062 1.933594 C 5.847656 1.929688 6.152344 1.929688 6.460938 1.925781 C 7.105469 1.921875 7.75 1.921875 8.394531 1.921875 C 9.21875 1.917969 10.042969 1.910156 10.867188 1.902344 C 11.5 1.894531 12.136719 1.894531 12.769531 1.890625 C 13.074219 1.890625 13.378906 1.886719 13.679688 1.882812 C 14.105469 1.878906 14.53125 1.878906 14.957031 1.882812 C 15.082031 1.878906 15.207031 1.875 15.335938 1.871094 C 16.03125 1.882812 16.425781 2.007812 16.917969 2.476562 C 17.285156 2.867188 17.332031 2.9375 17.332031 3.5 C 17.554688 3.554688 17.773438 3.609375 18 3.667969 C 17.945312 3.832031 17.890625 3.996094 17.832031 4.167969 C 17.722656 4.167969 17.613281 4.167969 17.5 4.167969 C 17.5 4.375 17.5 4.375 17.503906 4.589844 C 17.511719 5.914062 17.519531 7.234375 17.527344 8.554688 C 17.527344 9.234375 17.53125 9.914062 17.539062 10.59375 C 17.542969 11.25 17.546875 11.90625 17.546875 12.5625 C 17.546875 12.8125 17.550781 13.0625 17.554688 13.3125 C 17.554688 13.664062 17.558594 14.015625 17.558594 14.363281 C 17.558594 14.664062 17.558594 14.664062 17.558594 14.96875 C 17.472656 15.746094 17.109375 16.34375 16.5 16.832031 C 15.875 17.050781 15.230469 17.023438 14.578125 17.023438 C 14.453125 17.023438 14.328125 17.023438 14.195312 17.027344 C 13.78125 17.027344 13.367188 17.027344 12.953125 17.027344 C 12.664062 17.027344 12.375 17.027344 12.089844 17.03125 C 11.484375 17.03125 10.878906 17.03125 10.273438 17.03125 C 9.5 17.03125 8.726562 17.03125 7.953125 17.035156 C 7.355469 17.039062 6.761719 17.039062 6.164062 17.039062 C 5.878906 17.039062 5.59375 17.039062 5.308594 17.039062 C 4.910156 17.042969 4.511719 17.042969 4.109375 17.039062 C 3.992188 17.042969 3.875 17.042969 3.753906 17.042969 C 2.949219 17.039062 2.328125 16.9375 1.699219 16.417969 C 1.5 16.167969 1.5 16.167969 1.5 15.832031 C 1.390625 15.832031 1.28125 15.832031 1.167969 15.832031 C 1.148438 14.222656 1.132812 12.609375 1.125 10.996094 C 1.121094 10.246094 1.113281 9.5 1.105469 8.75 C 1.09375 8.027344 1.089844 7.304688 1.085938 6.582031 C 1.085938 6.304688 1.082031 6.03125 1.078125 5.753906 C 1.074219 5.367188 1.070312 4.980469 1.070312 4.59375 C 1.070312 4.375 1.070312 4.15625 1.066406 3.929688 C 1.199219 3.144531 1.441406 2.890625 2 2.332031 C 2.617188 1.921875 3.09375 1.949219 3.8125 1.945312 Z M 2.167969 3.332031 C 2.125 3.703125 2.125 3.703125 2.144531 4.105469 C 2.148438 4.242188 2.152344 4.375 2.15625 4.515625 C 2.160156 4.621094 2.164062 4.726562 2.167969 4.832031 C 4.03125 4.835938 5.898438 4.839844 7.765625 4.84375 C 8.632812 4.84375 9.496094 4.84375 10.363281 4.847656 C 11.199219 4.847656 12.035156 4.847656 12.871094 4.847656 C 13.1875 4.847656 13.507812 4.851562 13.828125 4.851562 C 14.273438 4.851562 14.71875 4.851562 15.164062 4.851562 C 15.367188 4.851562 15.367188 4.851562 15.570312 4.855469 C 16.167969 4.910156 16.167969 4.910156 16.667969 4.667969 C 16.640625 3.734375 16.640625 3.734375 16.167969 3 C 15.730469 2.96875 15.316406 2.953125 14.878906 2.957031 C 14.679688 2.957031 14.679688 2.957031 14.476562 2.957031 C 14.035156 2.953125 13.597656 2.953125 13.15625 2.957031 C 12.851562 2.957031 12.546875 2.957031 12.242188 2.953125 C 11.601562 2.953125 10.960938 2.953125 10.320312 2.957031 C 9.5 2.957031 8.675781 2.957031 7.855469 2.957031 C 7.226562 2.953125 6.59375 2.953125 5.964844 2.957031 C 5.664062 2.957031 5.359375 2.957031 5.054688 2.953125 C 4.632812 2.953125 4.210938 2.953125 3.789062 2.957031 C 3.660156 2.957031 3.535156 2.957031 3.40625 2.953125 C 2.710938 2.9375 2.710938 2.9375 2.167969 3.332031 Z M 2.167969 5.5 C 2.160156 6.820312 2.152344 8.140625 2.148438 9.460938 C 2.148438 10.070312 2.144531 10.683594 2.140625 11.296875 C 2.136719 11.890625 2.136719 12.480469 2.136719 13.070312 C 2.132812 13.296875 2.132812 13.523438 2.132812 13.75 C 2.128906 14.0625 2.128906 14.378906 2.128906 14.695312 C 2.128906 14.875 2.128906 15.054688 2.125 15.242188 C 2.125 15.695312 2.125 15.695312 2.5 16 C 2.933594 16.035156 3.351562 16.050781 3.785156 16.050781 C 3.917969 16.050781 4.050781 16.054688 4.1875 16.054688 C 4.625 16.058594 5.066406 16.0625 5.503906 16.0625 C 5.808594 16.0625 6.113281 16.066406 6.417969 16.066406 C 7.058594 16.070312 7.699219 16.070312 8.335938 16.070312 C 9.15625 16.070312 9.976562 16.078125 10.796875 16.085938 C 11.425781 16.089844 12.054688 16.09375 12.6875 16.09375 C 12.988281 16.09375 13.289062 16.09375 13.59375 16.097656 C 14.015625 16.101562 14.4375 16.101562 14.859375 16.101562 C 14.984375 16.101562 15.113281 16.105469 15.242188 16.105469 C 15.628906 16.109375 15.628906 16.109375 16.167969 16 C 16.675781 15.4375 16.726562 14.941406 16.722656 14.199219 C 16.722656 14.011719 16.722656 13.820312 16.722656 13.625 C 16.722656 13.421875 16.71875 13.21875 16.714844 13.007812 C 16.714844 12.796875 16.714844 12.585938 16.714844 12.371094 C 16.710938 11.816406 16.707031 11.261719 16.699219 10.707031 C 16.695312 10.136719 16.695312 9.570312 16.691406 9.003906 C 16.6875 7.890625 16.675781 6.777344 16.667969 5.667969 C 16.140625 5.402344 15.574219 5.476562 14.996094 5.480469 C 14.855469 5.480469 14.71875 5.480469 14.578125 5.480469 C 14.117188 5.480469 13.660156 5.480469 13.203125 5.484375 C 12.882812 5.484375 12.566406 5.484375 12.25 5.484375 C 11.414062 5.484375 10.578125 5.488281 9.742188 5.488281 C 8.890625 5.492188 8.039062 5.492188 7.1875 5.492188 C 5.511719 5.492188 3.839844 5.496094 2.167969 5.5 Z M 2.167969 5.5 "/>
<path style=" stroke:none;fill-rule:nonzero;fill:rgb(93.725491%,93.725491%,93.725491%);fill-opacity:1;" d="M 11.007812 7.636719 C 11.769531 8.09375 12.285156 8.8125 12.738281 9.5625 C 12.984375 10.707031 12.945312 11.683594 12.355469 12.707031 C 11.683594 13.746094 11.683594 13.746094 11.15625 14 C 10.832031 14 10.832031 14 10.542969 13.761719 C 10.472656 13.675781 10.402344 13.589844 10.332031 13.5 C 10.511719 13 10.699219 12.621094 11.011719 12.1875 C 11.382812 11.585938 11.488281 11.207031 11.5 10.5 C 11.253906 9.722656 11.035156 9.253906 10.332031 8.832031 C 9.609375 8.703125 8.851562 8.675781 8.171875 8.980469 C 7.488281 9.488281 7.320312 10.039062 7.167969 10.832031 C 7.285156 10.839844 7.40625 10.847656 7.53125 10.855469 C 8.210938 11.066406 8.449219 11.414062 8.832031 12 C 8.976562 12.695312 8.863281 12.945312 8.511719 13.5625 C 8.214844 13.886719 8.054688 13.988281 7.621094 14.074219 C 7.230469 14.082031 6.882812 14.078125 6.5 14 C 6.390625 13.890625 6.28125 13.78125 6.167969 13.667969 C 6.230469 13.230469 6.230469 13.230469 6.332031 12.832031 C 6.910156 12.75 6.910156 12.75 7.5 12.667969 C 7.5 12.445312 7.5 12.226562 7.5 12 C 6.757812 11.835938 6.757812 11.835938 6 11.667969 C 5.703125 10.746094 5.921875 9.863281 6.316406 9.007812 C 7.328125 7.363281 9.285156 6.925781 11.007812 7.636719 Z M 11.007812 7.636719 "/>
<path style=" stroke:none;fill-rule:nonzero;fill:rgb(93.725491%,93.725491%,93.725491%);fill-opacity:1;" d="M 18.332031 11.167969 C 18.664062 11.25 18.664062 11.25 19 11.332031 C 19 11.554688 19 11.773438 19 12 C 18.726562 11.945312 18.449219 11.890625 18.167969 11.832031 C 18.222656 11.613281 18.277344 11.394531 18.332031 11.167969 Z M 18.332031 11.167969 "/>
<path style=" stroke:none;fill-rule:nonzero;fill:rgb(93.725491%,93.725491%,93.725491%);fill-opacity:1;" d="M 18.332031 15.832031 C 18.664062 15.914062 18.664062 15.914062 19 16 C 19 16.21875 19 16.441406 19 16.667969 C 18.726562 16.613281 18.449219 16.558594 18.167969 16.5 C 18.222656 16.28125 18.277344 16.058594 18.332031 15.832031 Z M 18.332031 15.832031 "/>
<path style=" stroke:none;fill-rule:nonzero;fill:rgb(93.725491%,93.725491%,93.725491%);fill-opacity:1;" d="M 18.332031 13.5 C 18.664062 13.582031 18.664062 13.582031 19 13.667969 C 18.945312 13.886719 18.890625 14.105469 18.832031 14.332031 C 18.613281 14.277344 18.394531 14.222656 18.167969 14.167969 C 18.222656 13.945312 18.277344 13.726562 18.332031 13.5 Z M 18.332031 13.5 "/>
<path style=" stroke:none;fill-rule:nonzero;fill:rgb(93.725491%,93.725491%,93.725491%);fill-opacity:1;" d="M 18.332031 10 C 18.664062 10.082031 18.664062 10.082031 19 10.167969 C 18.945312 10.386719 18.890625 10.605469 18.832031 10.832031 C 18.613281 10.777344 18.394531 10.722656 18.167969 10.667969 C 18.222656 10.445312 18.277344 10.226562 18.332031 10 Z M 18.332031 10 "/>
<path style=" stroke:none;fill-rule:nonzero;fill:rgb(93.725491%,93.725491%,93.725491%);fill-opacity:1;" d="M 18.332031 8.832031 C 18.664062 8.914062 18.664062 8.914062 19 9 C 18.945312 9.21875 18.890625 9.441406 18.832031 9.667969 C 18.613281 9.613281 18.394531 9.558594 18.167969 9.5 C 18.222656 9.28125 18.277344 9.058594 18.332031 8.832031 Z M 18.332031 8.832031 "/>
<path style=" stroke:none;fill-rule:nonzero;fill:rgb(93.725491%,93.725491%,93.725491%);fill-opacity:1;" d="M 18.332031 7.667969 C 18.664062 7.75 18.664062 7.75 19 7.832031 C 18.945312 8.054688 18.890625 8.273438 18.832031 8.5 C 18.613281 8.445312 18.394531 8.390625 18.167969 8.332031 C 18.222656 8.113281 18.277344 7.894531 18.332031 7.667969 Z M 18.332031 7.667969 "/>
<path style=" stroke:none;fill-rule:nonzero;fill:rgb(93.725491%,93.725491%,93.725491%);fill-opacity:1;" d="M 18.332031 6.5 C 18.664062 6.582031 18.664062 6.582031 19 6.667969 C 18.945312 6.886719 18.890625 7.105469 18.832031 7.332031 C 18.613281 7.277344 18.394531 7.222656 18.167969 7.167969 C 18.222656 6.945312 18.277344 6.726562 18.332031 6.5 Z M 18.332031 6.5 "/>
<path style=" stroke:none;fill-rule:nonzero;fill:rgb(93.725491%,93.725491%,93.725491%);fill-opacity:1;" d="M 18.332031 5.332031 C 18.664062 5.414062 18.664062 5.414062 19 5.5 C 18.945312 5.71875 18.890625 5.941406 18.832031 6.167969 C 18.613281 6.113281 18.394531 6.058594 18.167969 6 C 18.222656 5.78125 18.277344 5.558594 18.332031 5.332031 Z M 18.332031 5.332031 "/>
<path style=" stroke:none;fill-rule:nonzero;fill:rgb(93.725491%,93.725491%,93.725491%);fill-opacity:1;" d="M 18.332031 14.667969 C 18.664062 14.75 18.664062 14.75 19 14.832031 C 18.945312 15.054688 18.890625 15.273438 18.832031 15.5 C 18.613281 15.445312 18.394531 15.390625 18.167969 15.332031 C 18.222656 15.113281 18.277344 14.894531 18.332031 14.667969 Z M 18.332031 14.667969 "/>
<path style=" stroke:none;fill-rule:nonzero;fill:rgb(93.725491%,93.725491%,93.725491%);fill-opacity:1;" d="M 18.332031 12.332031 C 18.664062 12.414062 18.664062 12.414062 19 12.5 C 18.945312 12.71875 18.890625 12.941406 18.832031 13.167969 C 18.613281 13.113281 18.394531 13.058594 18.167969 13 C 18.222656 12.78125 18.277344 12.558594 18.332031 12.332031 Z M 18.332031 12.332031 "/>
<path style=" stroke:none;fill-rule:nonzero;fill:rgb(93.725491%,93.725491%,93.725491%);fill-opacity:1;" d="M 18.167969 4.167969 C 18.332031 4.167969 18.496094 4.167969 18.667969 4.167969 C 18.722656 4.386719 18.777344 4.605469 18.832031 4.832031 C 18.613281 4.886719 18.394531 4.941406 18.167969 5 C 18.074219 4.675781 18.074219 4.675781 18 4.332031 C 18.054688 4.277344 18.109375 4.222656 18.167969 4.167969 Z M 18.167969 4.167969 "/>
<path style=" stroke:none;fill-rule:nonzero;fill:rgb(93.725491%,93.725491%,93.725491%);fill-opacity:1;" d="M 5.332031 3.5 C 5.746094 3.582031 5.746094 3.582031 6.167969 3.667969 C 6.058594 3.886719 5.945312 4.105469 5.832031 4.332031 C 5.667969 4.277344 5.503906 4.222656 5.332031 4.167969 C 5.332031 3.945312 5.332031 3.726562 5.332031 3.5 Z M 5.332031 3.5 "/>
<path style=" stroke:none;fill-rule:nonzero;fill:rgb(93.725491%,93.725491%,93.725491%);fill-opacity:1;" d="M 4 3.5 C 4.414062 3.582031 4.414062 3.582031 4.832031 3.667969 C 4.722656 3.886719 4.613281 4.105469 4.5 4.332031 C 4.335938 4.277344 4.171875 4.222656 4 4.167969 C 4 3.945312 4 3.726562 4 3.5 Z M 4 3.5 "/>
<path style=" stroke:none;fill-rule:nonzero;fill:rgb(93.725491%,93.725491%,93.725491%);fill-opacity:1;" d="M 2.667969 3.5 C 3.078125 3.582031 3.078125 3.582031 3.5 3.667969 C 3.390625 3.886719 3.28125 4.105469 3.167969 4.332031 C 3 4.277344 2.835938 4.222656 2.667969 4.167969 C 2.667969 3.945312 2.667969 3.726562 2.667969 3.5 Z M 2.667969 3.5 "/>
<path style=" stroke:none;fill-rule:nonzero;fill:rgb(93.725491%,93.725491%,93.725491%);fill-opacity:1;" d="M 6.667969 17.667969 C 6.832031 17.722656 6.996094 17.777344 7.167969 17.832031 C 7.167969 18.054688 7.167969 18.273438 7.167969 18.5 C 6.945312 18.5 6.726562 18.5 6.5 18.5 C 6.445312 18.335938 6.390625 18.171875 6.332031 18 C 6.441406 17.890625 6.554688 17.78125 6.667969 17.667969 Z M 6.667969 17.667969 "/>
<path style=" stroke:none;fill-rule:nonzero;fill:rgb(93.725491%,93.725491%,93.725491%);fill-opacity:1;" d="M 17.167969 17.667969 C 17.332031 17.667969 17.496094 17.667969 17.667969 17.667969 C 17.667969 17.941406 17.667969 18.214844 17.667969 18.5 C 17.445312 18.445312 17.226562 18.390625 17 18.332031 C 17.054688 18.113281 17.109375 17.894531 17.167969 17.667969 Z M 17.167969 17.667969 "/>
<path style=" stroke:none;fill-rule:nonzero;fill:rgb(93.725491%,93.725491%,93.725491%);fill-opacity:1;" d="M 16 17.667969 C 16.164062 17.722656 16.328125 17.777344 16.5 17.832031 C 16.5 18.054688 16.5 18.273438 16.5 18.5 C 16.28125 18.5 16.058594 18.5 15.832031 18.5 C 15.886719 18.226562 15.941406 17.949219 16 17.667969 Z M 16 17.667969 "/>
<path style=" stroke:none;fill-rule:nonzero;fill:rgb(93.725491%,93.725491%,93.725491%);fill-opacity:1;" d="M 14.832031 17.667969 C 15 17.722656 15.164062 17.777344 15.332031 17.832031 C 15.332031 18.054688 15.332031 18.273438 15.332031 18.5 C 15.113281 18.5 14.894531 18.5 14.667969 18.5 C 14.722656 18.226562 14.777344 17.949219 14.832031 17.667969 Z M 14.832031 17.667969 "/>
<path style=" stroke:none;fill-rule:nonzero;fill:rgb(93.725491%,93.725491%,93.725491%);fill-opacity:1;" d="M 13.667969 17.667969 C 13.832031 17.722656 13.996094 17.777344 14.167969 17.832031 C 14.167969 18.054688 14.167969 18.273438 14.167969 18.5 C 13.945312 18.5 13.726562 18.5 13.5 18.5 C 13.554688 18.226562 13.609375 17.949219 13.667969 17.667969 Z M 13.667969 17.667969 "/>
<path style=" stroke:none;fill-rule:nonzero;fill:rgb(93.725491%,93.725491%,93.725491%);fill-opacity:1;" d="M 12.5 17.667969 C 12.664062 17.722656 12.828125 17.777344 13 17.832031 C 13 18.054688 13 18.273438 13 18.5 C 12.78125 18.5 12.558594 18.5 12.332031 18.5 C 12.386719 18.226562 12.441406 17.949219 12.5 17.667969 Z M 12.5 17.667969 "/>
<path style=" stroke:none;fill-rule:nonzero;fill:rgb(93.725491%,93.725491%,93.725491%);fill-opacity:1;" d="M 11.332031 17.667969 C 11.5 17.722656 11.664062 17.777344 11.832031 17.832031 C 11.832031 18.054688 11.832031 18.273438 11.832031 18.5 C 11.613281 18.5 11.394531 18.5 11.167969 18.5 C 11.222656 18.226562 11.277344 17.949219 11.332031 17.667969 Z M 11.332031 17.667969 "/>
<path style=" stroke:none;fill-rule:nonzero;fill:rgb(93.725491%,93.725491%,93.725491%);fill-opacity:1;" d="M 10.167969 17.667969 C 10.332031 17.722656 10.496094 17.777344 10.667969 17.832031 C 10.667969 18.054688 10.667969 18.273438 10.667969 18.5 C 10.445312 18.5 10.226562 18.5 10 18.5 C 10.054688 18.226562 10.109375 17.949219 10.167969 17.667969 Z M 10.167969 17.667969 "/>
<path style=" stroke:none;fill-rule:nonzero;fill:rgb(93.725491%,93.725491%,93.725491%);fill-opacity:1;" d="M 9 17.667969 C 9.164062 17.722656 9.328125 17.777344 9.5 17.832031 C 9.5 18.054688 9.5 18.273438 9.5 18.5 C 9.28125 18.5 9.058594 18.5 8.832031 18.5 C 8.886719 18.226562 8.941406 17.949219 9 17.667969 Z M 9 17.667969 "/>
<path style=" stroke:none;fill-rule:nonzero;fill:rgb(93.725491%,93.725491%,93.725491%);fill-opacity:1;" d="M 7.832031 17.667969 C 8 17.722656 8.164062 17.777344 8.332031 17.832031 C 8.332031 18.054688 8.332031 18.273438 8.332031 18.5 C 8.113281 18.5 7.894531 18.5 7.667969 18.5 C 7.722656 18.226562 7.777344 17.949219 7.832031 17.667969 Z M 7.832031 17.667969 "/>
<path style=" stroke:none;fill-rule:nonzero;fill:rgb(93.725491%,93.725491%,93.725491%);fill-opacity:1;" d="M 5.5 17.667969 C 5.664062 17.722656 5.828125 17.777344 6 17.832031 C 6 18.054688 6 18.273438 6 18.5 C 5.78125 18.5 5.558594 18.5 5.332031 18.5 C 5.386719 18.226562 5.441406 17.949219 5.5 17.667969 Z M 5.5 17.667969 "/>
<path style=" stroke:none;fill-rule:nonzero;fill:rgb(93.725491%,93.725491%,93.725491%);fill-opacity:1;" d="M 4.332031 17.667969 C 4.5 17.722656 4.664062 17.777344 4.832031 17.832031 C 4.777344 18.054688 4.722656 18.273438 4.667969 18.5 C 4.5 18.5 4.335938 18.5 4.167969 18.5 C 4.113281 18.335938 4.058594 18.171875 4 18 C 4.109375 17.890625 4.21875 17.78125 4.332031 17.667969 Z M 4.332031 17.667969 "/>
<path style=" stroke:none;fill-rule:nonzero;fill:rgb(93.725491%,93.725491%,93.725491%);fill-opacity:1;" d="M 3.167969 17.167969 C 3.496094 17.25 3.496094 17.25 3.832031 17.332031 C 3.777344 17.554688 3.722656 17.773438 3.667969 18 C 3.445312 17.890625 3.226562 17.78125 3 17.667969 C 3.054688 17.5 3.109375 17.335938 3.167969 17.167969 Z M 3.167969 17.167969 "/>
<path style=" stroke:none;fill-rule:nonzero;fill:rgb(93.725491%,93.725491%,93.725491%);fill-opacity:1;" d="M 18 17 C 18.21875 17.054688 18.441406 17.109375 18.667969 17.167969 C 18.613281 17.386719 18.558594 17.605469 18.5 17.832031 C 18.335938 17.777344 18.171875 17.722656 18 17.667969 C 18 17.445312 18 17.226562 18 17 Z M 18 17 "/>
</g>
</svg>
